<svg xmlns="http://www.w3.org/2000/svg" viewBox="0 0 512 512" width="512" height="512">
  <rect width="512" height="512" rx="112" fill="#A95B4B"/>
  <rect x="14" y="14" width="484" height="484" rx="98" fill="none" stroke="#F4EBDD" stroke-width="14"/>
  
  <g stroke-linecap="round" stroke-linejoin="round">
    <path d="M360 187
             c-26-28-78-39-119-20
             c-48 22-74 75-62 120
             c11 43 53 69 96 59
             c35-8 60-40 57-73
             c-3-31-28-53-58-53
             c-27 0-47 19-49 43
             c-2 20 14 38 34 41"
          fill="none" stroke="#F2E6D7" stroke-width="25"/>
    <path d="M346 183c20 4 36 17 45 35M364 170c13-17 29-27 46-30M378 185c22-11 43-13 61-8"
          fill="none" stroke="#E5A54A" stroke-width="8"/>
    <path d="M234 190l-11 35M275 173l-2 39M313 175l8 35M194 237l34 12M193 278l36-4M216 321l24-28"
          fill="none" stroke="#C77A52" stroke-width="8"/>
    <circle cx="355" cy="200" r="7" fill="#4A4A45"/>
  </g>

</svg>